<svg width="56" height="56" viewBox="0 0 56 56" fill="none" xmlns="http://www.w3.org/2000/svg">
<path d="M15.75 7.875H40.25V13.125H15.75V7.875Z" fill="#E81637"/>
<path d="M40.25 13.125V25.375C40.2486 25.8387 40.0638 26.283 39.7359 26.6109C39.408 26.9388 38.9637 27.1236 38.5 27.125H17.5C17.0363 27.1236 16.592 26.9388 16.2641 26.6109C15.9362 26.283 15.7514 25.8387 15.75 25.375V13.125H40.25Z" fill="#E81637"/>
<path d="M46.375 27.475V19.25C46.375 18.5538 46.6516 17.8861 47.1438 17.3938C47.6361 16.9016 48.3038 16.625 49 16.625C49.6962 16.625 50.3639 16.9016 50.8562 17.3938C51.3484 17.8861 51.625 18.5538 51.625 19.25V40.25L48.125 44.625V46.375H37.625V39.375L43.75 28.77C43.9793 28.3696 44.3107 28.0372 44.7103 27.8066C45.11 27.5761 45.5636 27.4556 46.025 27.4575C46.1387 27.4575 46.2612 27.4662 46.375 27.475Z" fill="#E81637"/>
<path d="M49.875 46.375V53.375H35.875V46.375H37.625H48.125H49.875Z" fill="#E81637"/>
<path d="M36.75 2.625L40.25 7.875H30.625H25.375H15.75L19.25 2.625H36.75Z" fill="#E81637"/>
<path d="M33.25 37.625H30.625V44.625H25.375V37.625H22.75L28 32.375L33.25 37.625Z" fill="#E81637"/>
<path d="M30.625 13.125V16.625L28 14.875L25.375 16.625V13.125V7.875H30.625V13.125Z" fill="#F7FAFF"/>
<path d="M21 46.375V53.375H7V46.375H8.75H19.25H21Z" fill="#E81637"/>
<path d="M10.5 27.475C10.6137 27.4662 10.7362 27.4575 10.85 27.4575C11.3114 27.4556 11.765 27.5761 12.1647 27.8066C12.5643 28.0372 12.8957 28.3696 13.125 28.77L19.25 39.375V46.375H8.75V44.625L5.25 40.25V19.25C5.25 18.5538 5.52656 17.8861 6.01884 17.3938C6.51113 16.9016 7.17881 16.625 7.875 16.625C8.57119 16.625 9.23887 16.9016 9.73116 17.3938C10.2234 17.8861 10.5 18.5538 10.5 19.25V27.475Z" fill="#E81637"/>
<path d="M40.9762 7.39375L37.4762 2.14375C37.397 2.02338 37.2892 1.92446 37.1625 1.85577C37.0358 1.78708 36.8941 1.75075 36.75 1.75H19.25C19.1059 1.75075 18.9642 1.78708 18.8375 1.85577C18.7108 1.92446 18.603 2.02338 18.5238 2.14375L15.0238 7.39375C14.9265 7.53535 14.8746 7.7032 14.875 7.875V25.375C14.8771 26.0706 15.1543 26.737 15.6461 27.2289C16.138 27.7207 16.8044 27.9979 17.5 28H38.5C39.1956 27.9979 39.862 27.7207 40.3539 27.2289C40.8457 26.737 41.1229 26.0706 41.125 25.375V7.875C41.1254 7.7032 41.0735 7.53535 40.9762 7.39375ZM19.7225 3.5H36.2775L38.6138 7H17.3863L19.7225 3.5ZM29.75 8.75V14.9887L28.4812 14.1487C28.34 14.0505 28.1721 13.9978 28 13.9978C27.8279 13.9978 27.66 14.0505 27.5188 14.1487L26.25 14.9887V8.75H29.75ZM16.625 8.75H24.5V12.25H16.625V8.75ZM39.375 25.375C39.375 25.6071 39.2828 25.8296 39.1187 25.9937C38.9546 26.1578 38.7321 26.25 38.5 26.25H17.5C17.2679 26.25 17.0454 26.1578 16.8813 25.9937C16.7172 25.8296 16.625 25.6071 16.625 25.375V14H24.5V16.625C24.4989 16.7836 24.5416 16.9394 24.6234 17.0753C24.7053 17.2112 24.823 17.3218 24.9638 17.395C25.1017 17.4721 25.2585 17.5089 25.4163 17.5012C25.5741 17.4934 25.7265 17.4415 25.8562 17.3512L28 15.925L30.1438 17.3512C30.2753 17.4379 30.4279 17.4874 30.5853 17.4946C30.7427 17.5017 30.8992 17.4662 31.0381 17.3919C31.177 17.3175 31.2932 17.207 31.3745 17.072C31.4558 16.937 31.4992 16.7826 31.5 16.625V14H39.375V25.375ZM39.375 12.25H31.5V8.75H39.375V12.25Z" fill="#E8F2FF"/>
<path d="M28.6186 31.7564C28.4545 31.5923 28.232 31.5002 28 31.5002C27.768 31.5002 27.5455 31.5923 27.3814 31.7564L22.1314 37.0064C22.009 37.1287 21.9257 37.2846 21.892 37.4543C21.8582 37.6241 21.8756 37.8 21.9418 37.9598C22.008 38.1197 22.1201 38.2563 22.264 38.3525C22.4078 38.4486 22.577 38.5 22.75 38.5H24.5V44.625H26.25V37.625C26.25 37.3929 26.1578 37.1704 25.9937 37.0063C25.8296 36.8422 25.6071 36.75 25.375 36.75H24.8622L28 33.6122L31.1377 36.75H30.625C30.3929 36.75 30.1704 36.8422 30.0063 37.0063C29.8422 37.1704 29.75 37.3929 29.75 37.625V48.125H31.5V38.5H33.25C33.423 38.5 33.5922 38.4486 33.736 38.3525C33.8799 38.2563 33.992 38.1197 34.0582 37.9598C34.1244 37.8 34.1418 37.6241 34.108 37.4543C34.0743 37.2846 33.991 37.1287 33.8686 37.0064L28.6186 31.7564Z" fill="#E81637"/>
<path d="M44.625 3.5H46.375V8.75H44.625V3.5Z" fill="#E81637"/>
<path d="M44.625 10.5H46.375V12.25H44.625V10.5Z" fill="#E81637"/>
<path d="M49.875 6.125H51.625V9.625H49.875V6.125Z" fill="#E81637"/>
<path d="M49.875 11.375H51.625V13.125H49.875V11.375Z" fill="#E81637"/>
<path d="M9.625 3.5H11.375V8.75H9.625V3.5Z" fill="#E81637"/>
<path d="M9.625 10.5H11.375V12.25H9.625V10.5Z" fill="#E81637"/>
<path d="M4.375 6.125H6.125V9.625H4.375V6.125Z" fill="#E81637"/>
<path d="M4.375 11.375H6.125V13.125H4.375V11.375Z" fill="#E81637"/>
<path d="M38.5 49H40.25V50.75H38.5V49Z" fill="#E81637"/>
<path d="M49 15.75C48.0717 15.75 47.1815 16.1187 46.5251 16.7751C45.8688 17.4315 45.5 18.3217 45.5 19.25V26.635C45.3705 26.6469 45.2418 26.6673 45.115 26.6962C44.6704 26.8157 44.2537 27.0218 43.8889 27.3025C43.524 27.5833 43.2181 27.9333 42.9888 28.3325L36.8638 38.9375C36.7904 39.0718 36.7514 39.222 36.75 39.375V45.5H35.875C35.6429 45.5 35.4204 45.5922 35.2563 45.7563C35.0922 45.9204 35 46.1429 35 46.375V53.375C35 53.6071 35.0922 53.8296 35.2563 53.9937C35.4204 54.1578 35.6429 54.25 35.875 54.25H49.875C50.1071 54.25 50.3296 54.1578 50.4937 53.9937C50.6578 53.8296 50.75 53.6071 50.75 53.375V46.375C50.75 46.1429 50.6578 45.9204 50.4937 45.7563C50.3296 45.5922 50.1071 45.5 49.875 45.5H49V44.9312L52.3075 40.7925C52.4325 40.6394 52.5005 40.4476 52.5 40.25V19.25C52.5 18.3217 52.1313 17.4315 51.4749 16.7751C50.8185 16.1187 49.9283 15.75 49 15.75ZM49 52.5H36.75V47.25H49V52.5ZM50.75 39.9438L47.4425 44.0825C47.3176 44.2356 47.2495 44.4274 47.25 44.625V45.5H38.5V39.6112L44.5113 29.2075C44.6207 28.9984 44.7712 28.8135 44.9539 28.6641C45.1366 28.5147 45.3476 28.4037 45.5743 28.338C45.801 28.2722 46.0386 28.253 46.2729 28.2814C46.5072 28.3099 46.7333 28.3855 46.9377 28.5036C47.142 28.6217 47.3204 28.7799 47.462 28.9687C47.6036 29.1576 47.7055 29.3731 47.7617 29.6023C47.8178 29.8316 47.827 30.0698 47.7887 30.3027C47.7504 30.5356 47.6654 30.7583 47.5388 30.9575L43.1638 38.535L44.6775 39.41L49.0525 31.8325C49.5167 31.0281 49.6429 30.0725 49.4034 29.1752C49.1639 28.278 48.5783 27.5123 47.775 27.0462C47.6059 26.955 47.4304 26.8761 47.25 26.81V19.25C47.25 18.7859 47.4344 18.3408 47.7626 18.0126C48.0908 17.6844 48.5359 17.5 49 17.5C49.4641 17.5 49.9093 17.6844 50.2374 18.0126C50.5656 18.3408 50.75 18.7859 50.75 19.25V39.9438Z" fill="#E81637"/>
<path d="M21 45.5H20.125V39.375C20.1236 39.222 20.0846 39.0718 20.0113 38.9375L13.8863 28.3325C13.622 27.8792 13.259 27.4912 12.8242 27.1973C12.3895 26.9035 11.8942 26.7113 11.375 26.635V19.25C11.375 18.3217 11.0063 17.4315 10.3499 16.7751C9.6935 16.1187 8.80326 15.75 7.875 15.75C6.94675 15.75 6.05651 16.1187 5.40013 16.7751C4.74375 17.4315 4.375 18.3217 4.375 19.25V40.25C4.37453 40.4476 4.44255 40.6394 4.5675 40.7925L7.875 44.9312V45.5H7C6.76794 45.5 6.54538 45.5922 6.38128 45.7563C6.21719 45.9204 6.125 46.1429 6.125 46.375V53.375C6.125 53.6071 6.21719 53.8296 6.38128 53.9937C6.54538 54.1578 6.76794 54.25 7 54.25H21C21.2321 54.25 21.4546 54.1578 21.6187 53.9937C21.7828 53.8296 21.875 53.6071 21.875 53.375V46.375C21.875 46.1429 21.7828 45.9204 21.6187 45.7563C21.4546 45.5922 21.2321 45.5 21 45.5ZM6.125 39.9438V19.25C6.125 18.7859 6.30938 18.3408 6.63757 18.0126C6.96575 17.6844 7.41087 17.5 7.875 17.5C8.33913 17.5 8.78425 17.6844 9.11244 18.0126C9.44063 18.3408 9.625 18.7859 9.625 19.25V26.81C9.44526 26.8778 9.26992 26.9567 9.1 27.0462C8.70157 27.2764 8.35242 27.5828 8.07253 27.948C7.79263 28.3132 7.58749 28.7299 7.46884 29.1745C7.35018 29.619 7.32035 30.0826 7.38103 30.5387C7.44172 30.9948 7.59173 31.4344 7.8225 31.8325L12.1975 39.41L13.7113 38.535L9.33625 30.9575C9.20963 30.7583 9.12461 30.5356 9.08631 30.3027C9.048 30.0698 9.0572 29.8316 9.11335 29.6023C9.16951 29.3731 9.27145 29.1576 9.41305 28.9687C9.55465 28.7799 9.73299 28.6217 9.93733 28.5036C10.1417 28.3855 10.3678 28.3099 10.6021 28.2814C10.8364 28.253 11.074 28.2722 11.3007 28.338C11.5274 28.4037 11.7384 28.5147 11.9211 28.6641C12.1038 28.8135 12.2544 28.9984 12.3638 29.2075L18.375 39.6112V45.5H9.625V44.625C9.62548 44.4274 9.55745 44.2356 9.4325 44.0825L6.125 39.9438ZM20.125 52.5H7.875V47.25H20.125V52.5Z" fill="#E81637"/>
<path d="M16.625 49H18.375V50.75H16.625V49Z" fill="#E81637"/>
<path d="M29.75 49.875H31.5V51.625H29.75V49.875Z" fill="#E81637"/>
<path d="M24.5 46.375H26.25V48.125H24.5V46.375Z" fill="#E81637"/>
</svg>
