<svg width="50" height="39" viewBox="0 0 50 39" fill="none" xmlns="http://www.w3.org/2000/svg">
<rect width="50" height="39" rx="2" fill="#D8362A"/>
<path d="M38.7103 12.9655C38.7103 12.9655 38.4206 10.8897 37.6 9.97243C36.5379 8.76554 35.331 8.76554 34.8 8.71725C30.8897 8.42762 25 8.37933 25 8.37933C25 8.37933 19.1103 8.42762 15.2 8.71725C14.669 8.76554 13.4621 8.81383 12.4 9.97243C11.531 10.8897 11.2897 12.9655 11.2897 12.9655C11.2897 12.9655 11 15.4276 11 17.8897V20.1587C11 22.6208 11.2897 25.0346 11.2897 25.0346C11.2897 25.0346 11.5794 27.1105 12.4 28.0277C13.4621 29.2346 14.8621 29.1863 15.4897 29.3311C17.7103 29.5724 25 29.6207 25 29.6207C25 29.6207 30.8897 29.6207 34.8 29.2828C35.331 29.2345 36.5379 29.1862 37.6 28.0276C38.4207 27.1104 38.7103 25.0345 38.7103 25.0345C38.7103 25.0345 39 22.5724 39 20.1586V17.8897C39 15.4276 38.7103 12.9655 38.7103 12.9655Z" fill="white"/>
<path d="M21.6211 14.1241V24.6L30.7935 19.4827L21.6211 14.1241Z" fill="#D8362A"/>
</svg>
