<svg width="50" height="39" viewBox="0 0 50 39" fill="none" xmlns="http://www.w3.org/2000/svg">
<rect width="50" height="39" rx="2" fill="#F34A38"/>
<path d="M19.8837 22.0717H25.1755C24.2467 24.6978 21.7309 26.5807 18.7856 26.559C15.212 26.5326 12.257 23.6738 12.1183 20.1027C11.9695 16.2747 15.0406 13.1131 18.8361 13.1131C20.5716 13.1131 22.1553 13.7743 23.3492 14.8578C23.632 15.1145 24.0625 15.1162 24.3406 14.8544L26.2843 13.0251C26.5882 12.7389 26.5893 12.2558 26.2863 11.9687C24.3928 10.1748 21.8528 9.05674 19.0518 9.00204C13.0776 8.8854 8.04188 13.7836 8.00027 19.7589C7.95829 25.779 12.8258 30.6723 18.8361 30.6723C24.6162 30.6723 29.338 26.1466 29.6542 20.4456C29.6627 20.3741 29.6682 17.9585 29.6682 17.9585H19.8837C19.4827 17.9585 19.1576 18.2836 19.1576 18.6847V21.3455C19.1576 21.7466 19.4827 22.0717 19.8837 22.0717Z" fill="white"/>
<path d="M38.6403 18.2V15.6002C38.6403 15.2487 38.3554 14.9639 38.004 14.9639H35.8158C35.4643 14.9639 35.1795 15.2487 35.1795 15.6002V18.2H32.5797C32.2282 18.2 31.9434 18.4849 31.9434 18.8363V21.0245C31.9434 21.3759 32.2282 21.6608 32.5797 21.6608H35.1795V24.2606C35.1795 24.6121 35.4643 24.8969 35.8158 24.8969H38.004C38.3554 24.8969 38.6403 24.6121 38.6403 24.2606V21.6608H41.2401C41.5916 21.6608 41.8764 21.3759 41.8764 21.0245V18.8363C41.8764 18.4849 41.5916 18.2 41.2401 18.2H38.6403Z" fill="white"/>
</svg>
