<svg width="56" height="61" viewBox="0 0 56 61" fill="none" xmlns="http://www.w3.org/2000/svg">
<path d="M11.6902 7.30986C11.0279 6.60876 10.2993 5.01961 12.6837 4.27178C15.6643 3.33698 15.4159 3.33698 15.6643 2.63589C15.9126 1.93479 15.6643 1.2337 15.6643 1" stroke="#E81637" stroke-width="2"/>
<path d="M19.5775 7.30986C18.9152 6.60876 18.1866 5.01961 20.571 4.27178C23.5516 3.33698 23.3032 3.33698 23.5516 2.63589C23.7999 1.93479 23.5516 1.2337 23.5516 1" stroke="#E81637" stroke-width="2"/>
<path d="M27.4649 7.30986C26.8025 6.60876 26.074 5.01961 28.4584 4.27178C31.4389 3.33698 31.1905 3.33698 31.4389 2.63589C31.6873 1.93479 31.4389 1.2337 31.4389 1" stroke="#E81637" stroke-width="2"/>
<path d="M0 31.2394C0 28.478 2.23858 26.2394 5 26.2394H39.9577C42.7192 26.2394 44.9577 28.478 44.9577 31.2394V60.1549H5C2.23857 60.1549 0 57.9164 0 55.1549V31.2394Z" fill="#E81637"/>
<path d="M47.3239 38.0704H51C53.7614 38.0704 56 40.309 56 43.0704V55.1549C56 57.9164 53.7614 60.1549 51 60.1549H47.3239V38.0704Z" fill="#E81637"/>
<rect x="49.6901" y="42.8028" width="3.94366" height="1.57746" rx="0.788732" fill="#F7FAFF"/>
<rect x="12.6197" y="32.5493" width="3.94366" height="2.3662" rx="1.1831" fill="#F7FAFF"/>
<rect x="20.507" y="32.5493" width="3.94366" height="2.3662" rx="1.1831" fill="#F7FAFF"/>
<rect x="28.3944" y="32.5493" width="3.94366" height="2.3662" rx="1.1831" fill="#F7FAFF"/>
<rect x="49.6901" y="46.7465" width="3.94366" height="1.57746" rx="0.788732" fill="#F7FAFF"/>
<line x1="15" y1="60.1409" x2="15" y2="42" stroke="#E81637" stroke-width="2"/>
<line x1="29" y1="60.155" x2="29" y2="42.0141" stroke="#E81637" stroke-width="2"/>
<line x1="14" y1="43" x2="30" y2="43" stroke="#E81637" stroke-width="2" stroke-linejoin="round"/>
<path d="M10.2535 13.2535C10.2535 12.149 11.1489 11.2535 12.2535 11.2535H12.9859C14.0905 11.2535 14.9859 12.149 14.9859 13.2535V22.2958H10.2535V13.2535Z" fill="#E81637"/>
<path d="M18.1408 13.2535C18.1408 12.149 19.0363 11.2535 20.1408 11.2535H20.8732C21.9778 11.2535 22.8732 12.149 22.8732 13.2535V22.2958H18.1408V13.2535Z" fill="#E81637"/>
<path d="M26.0282 13.2535C26.0282 12.149 26.9236 11.2535 28.0282 11.2535H28.7606C29.8651 11.2535 30.7606 12.149 30.7606 13.2535V22.2958H26.0282V13.2535Z" fill="#E81637"/>
</svg>
