<svg width="308" height="290" viewBox="0 0 308 290" fill="none" xmlns="http://www.w3.org/2000/svg">
<path d="M307.994 97.0593C307.994 43.9039 264.904 0.813721 211.745 0.813721H192.663C141.627 12.0937 102.455 62.0355 115.041 116.566C128.865 176.459 188.807 208.733 246.431 189.31C249.626 186.29 256.364 187.616 256.336 193.311C256.173 225.398 256.013 257.476 255.85 289.56H269.501H308L307.994 97.0593ZM250.256 125.164C242.805 125.164 242.805 113.613 250.256 113.613C257.701 113.613 257.701 125.164 250.256 125.164Z" fill="#E81637"/>
<path d="M102.78 112.958C96.7007 65.1384 120.847 22.0636 159.623 0.813721H96.2486C43.0932 0.813721 0 43.9039 0 97.0593V289.557H51.0396C51.0396 275.617 51.0396 261.67 51.0396 247.727C51.0396 240.279 62.5902 240.279 62.5902 247.727C62.5902 261.667 62.5902 275.613 62.5902 289.557H119.35C119.35 275.617 119.35 261.67 119.35 247.727C119.35 240.279 130.9 240.279 130.9 247.727C130.9 261.667 130.9 275.613 130.9 289.557H182.869C182.869 275.617 182.869 261.67 182.869 247.727C182.869 240.279 194.419 240.279 194.419 247.727C194.419 261.67 194.419 275.613 194.419 289.56H220.396H230.99H244.303C244.447 260.354 244.592 231.152 244.746 201.943C181.882 220.087 111.434 181.053 102.78 112.958Z" fill="#E81637"/>
</svg>
