<svg width="40" height="35" viewBox="0 0 40 35" fill="none" xmlns="http://www.w3.org/2000/svg">
<path d="M0.639317 15.9459L15.0847 1.50014C15.4971 1.08779 16.0467 0.86145 16.6327 0.86145C17.2194 0.86145 17.7686 1.08811 18.181 1.50014L19.4925 2.812C19.9045 3.22371 20.1315 3.77362 20.1315 4.35996C20.1315 4.94597 19.9045 5.51442 19.4925 5.92612L11.0653 14.3719H37.839C39.0462 14.3719 40 15.3169 40 16.5244V18.379C40 19.5865 39.0462 20.6268 37.839 20.6268H10.9696L19.4922 29.1198C19.9042 29.5321 20.1312 30.0671 20.1312 30.6534C20.1312 31.2391 19.9042 31.7819 19.4922 32.1939L18.1807 33.5015C17.7683 33.9139 17.219 34.1386 16.6324 34.1386C16.0464 34.1386 15.4968 33.9109 15.0844 33.4986L0.638992 19.0532C0.225662 18.6395 -0.00165176 18.0873 -2.67029e-05 17.5003C-0.00132751 16.9114 0.225662 16.3589 0.639317 15.9459Z" fill="#213042"/>
</svg>
