<svg width="29" height="29" viewBox="0 0 29 29" fill="none" xmlns="http://www.w3.org/2000/svg">
<g clip-path="url(#clip0)">
<path d="M14.2934 13.9694C16.2125 13.9694 17.8743 13.2811 19.2321 11.923C20.59 10.5652 21.2783 8.90383 21.2783 6.98447C21.2783 5.06578 20.59 3.40418 19.2319 2.04591C17.8739 0.688314 16.2123 0 14.2934 0C12.374 0 10.7126 0.688314 9.35477 2.04613C7.99695 3.40396 7.30841 5.06555 7.30841 6.98447C7.30841 8.90383 7.99695 10.5654 9.355 11.9232C10.713 13.2808 12.3746 13.9694 14.2934 13.9694Z" fill="#F7FAFF"/>
<path d="M26.5151 22.2995C26.476 21.7344 26.3967 21.118 26.2801 20.4671C26.1624 19.8113 26.0109 19.1913 25.8295 18.6247C25.6421 18.039 25.3872 17.4607 25.0721 16.9065C24.7451 16.3312 24.361 15.8303 23.93 15.4181C23.4793 14.9869 22.9275 14.6402 22.2894 14.3873C21.6535 14.1357 20.9488 14.0083 20.195 14.0083C19.899 14.0083 19.6127 14.1297 19.0598 14.4897C18.7195 14.7116 18.3215 14.9683 17.8772 15.2522C17.4973 15.4942 16.9827 15.721 16.347 15.9263C15.7268 16.127 15.0972 16.2288 14.4757 16.2288C13.8542 16.2288 13.2247 16.127 12.6039 15.9263C11.9689 15.7212 11.4542 15.4944 11.0748 15.2524C10.6347 14.9712 10.2365 14.7145 9.89109 14.4895C9.33884 14.1295 9.05232 14.0081 8.75629 14.0081C8.00226 14.0081 7.29779 14.1357 6.66213 14.3875C6.02448 14.64 5.47246 14.9867 5.02132 15.4183C4.59055 15.8307 4.20623 16.3314 3.87966 16.9065C3.56482 17.4607 3.30994 18.0388 3.12231 18.6249C2.94111 19.1915 2.78955 19.8113 2.67184 20.4671C2.55524 21.1171 2.47604 21.7337 2.43687 22.3001C2.39838 22.855 2.37891 23.4309 2.37891 24.0126C2.37891 25.5264 2.86013 26.7519 3.80908 27.6557C4.74631 28.5476 5.98643 29.0001 7.49448 29.0001H21.4582C22.9662 29.0001 24.2059 28.5478 25.1433 27.6557C26.0925 26.7526 26.5737 25.5269 26.5737 24.0124C26.5735 23.4281 26.5538 22.8517 26.5151 22.2995Z" fill="#F7FAFF"/>
</g>
<defs>
<clipPath id="clip0">
<rect width="29" height="29" fill="white"/>
</clipPath>
</defs>
</svg>
